<svg xmlns="http://www.w3.org/2000/svg" xmlns:xlink="http://www.w3.org/1999/xlink" height="512" style="enable-background:new 0 0 512 512;" version="1.1" width="512" xml:space="preserve"><rect id="backgroundrect" width="100%" height="100%" x="0" y="0" fill="none" stroke="none"/><g class="currentLayer" style=""><title>Layer 1</title><g id="svg_1" class="" fill="#ffffff" fill-opacity="1"><path d="M113.7,304C86.2,304,64,282.6,64,256c0-26.5,22.2-48,49.7-48c27.6,0,49.8,21.5,49.8,48C163.5,282.6,141.3,304,113.7,304z" id="svg_2" fill="#ffffff" fill-opacity="1"/><path d="M256,304c-27.5,0-49.8-21.4-49.8-48c0-26.5,22.3-48,49.8-48c27.5,0,49.7,21.5,49.7,48C305.7,282.6,283.5,304,256,304z" id="svg_3" fill="#ffffff" fill-opacity="1"/><path d="M398.2,304c-27.5,0-49.8-21.4-49.8-48c0-26.5,22.2-48,49.8-48c27.5,0,49.8,21.5,49.8,48C448,282.6,425.8,304,398.2,304z" id="svg_4" fill="#ffffff" fill-opacity="1"/></g></g></svg>