<svg xmlns="http://www.w3.org/2000/svg" xmlns:xlink="http://www.w3.org/1999/xlink" height="512" style="" version="1.1" width="512" xml:space="preserve"><rect id="backgroundrect" width="100%" height="100%" x="0" y="0" fill="none" stroke="none"/><g class="currentLayer" style=""><title>Layer 1</title><g id="svg_1" class="" fill="#ff0000" fill-opacity="1"><path d="M400,113.3h-80v-20c0-16.2-13.1-29.3-29.3-29.3h-69.5C205.1,64,192,77.1,192,93.3v20h-80V128h21.1l23.6,290.7   c0,16.2,13.1,29.3,29.3,29.3h141c16.2,0,29.3-13.1,29.3-29.3L379.6,128H400V113.3z M206.6,93.3c0-8.1,6.6-14.7,14.6-14.7h69.5   c8.1,0,14.6,6.6,14.6,14.7v20h-98.7V93.3z M341.6,417.9l0,0.4v0.4c0,8.1-6.6,14.7-14.6,14.7H186c-8.1,0-14.6-6.6-14.6-14.7v-0.4   l0-0.4L147.7,128h217.2L341.6,417.9z" id="svg_2" fill="#ff0000" fill-opacity="1"/><g id="svg_3" fill="#ff0000" fill-opacity="1"><rect height="241" width="14" x="249" y="160" id="svg_4" fill="#ff0000" fill-opacity="1"/><polygon points="320,160 305.4,160 294.7,401 309.3,401   " id="svg_5" fill="#ff0000" fill-opacity="1"/><polygon points="206.5,160 192,160 202.7,401 217.3,401   " id="svg_6" fill="#ff0000" fill-opacity="1"/></g></g></g></svg>